<svg version="1.1" id="img" xmlns="http://www.w3.org/2000/svg" xmlns:xlink="http://www.w3.org/1999/xlink"
	viewBox="0 0 780 864">
	<path stroke="green" d="M499.59,782.64c30.05-32.96,24.48-70.19-0.36-70.61c8.88,27.36-11.52,45.05-19.28,54.15
	c-19.56-16.82-39.82-35.52-60.79-54.77c102.31-84.63,214.28-159.7,360.57-162.06c-157.51-56.57-283.24,39.58-389.69,135.51
	C283.58,588.93,157.86,492.78,0.31,549.35c146.32,2.36,258.28,77.42,360.61,162.06c-21.01,19.25-41.25,37.95-60.84,54.77
	c-7.7-9.1-28.11-26.79-19.28-54.15c-24.82,0.42-31.4,37.65-0.32,70.61c-12.43,10.35-32.56,27.86-48.58,32.06
	c-12.32,3.22-22.21-3.18-24.44-16.53c-4.7-28.19-48.37-23.98-43.03,15.84c4.9,36.31,48.99,52.15,86.77,35.33
	c14.99-6.69,35.58-25.67,52.48-39.46c7.73,9.04,28.13,26.72,19.27,54.12c24.84-0.46,31.4-37.65,0.35-70.66
	c22.06-18.82,44.2-38.23,66.74-57.43c22.52,19.19,44.67,38.61,66.75,57.43c-31.07,33.01-24.51,70.2,0.34,70.66
	c-8.86-27.4,11.54-45.06,19.25-54.12c16.93,13.79,37.5,32.77,52.51,39.46c37.78,16.82,81.84,0.98,86.74-35.33
	c5.34-39.82-38.31-44.03-43.05-15.84c-2.23,13.35-12.09,19.74-24.43,16.53C532.13,810.5,512.01,792.99,499.59,782.64 M306.39,254.77
	c-23.73,62.73-25.04,133.37,9.08,211.06c-5.44-80.68,12.26-147.32,45.17-197.54l6.95,69.18h-8.11l8.11,80.99h-8.11l8.11,80.97h-8.11
	l8.1,80.87l-22.92,22.85h45.38h45.39l-22.94-22.85l8.12-80.87h-8.12l8.12-80.97h-8.12l8.12-80.99h-8.12l6.96-69.18
	c32.9,50.22,50.61,116.91,45.17,197.54c34.09-77.69,32.81-148.3,9.08-211.06c40.29,47.51,71.46,103.06,85.47,172.5
	c14.54-88.08-10.32-159.97-55.89-215.75c44.12,31.82,82.03,72.15,108.54,126.69c-6.18-83.45-48.4-137.56-106.56-176.33
	c50.26,16.43,91.3,43.93,128.13,92.75c-24.63-86.59-78.29-121.27-144.79-140.77c45.35-3.31,88.2,1.8,130.61,28.22
	C573.18,80.01,511.39,69.7,448.73,76.6c26.35-13.42,56-20.13,87.85-15.38c-35.9-26.48-83.79-29.1-124.78-6.78l-21.76-54.9
	l-21.79,54.87c-41-22.29-88.85-19.68-124.75,6.81c31.83-4.74,61.46,1.96,87.82,15.38c-62.64-6.9-124.41,3.42-170.47,65.48
	c42.44-26.42,85.26-31.53,130.63-28.22c-66.48,19.5-120.16,54.18-144.77,140.77c36.8-48.81,77.86-76.32,128.13-92.75
	c-58.2,38.76-100.4,92.88-106.59,176.33c26.5-54.54,64.44-94.87,108.54-126.69c-45.57,55.78-70.43,127.67-55.89,215.75
	C234.92,357.83,266.09,302.28,306.39,254.77" />
</svg>